<svg xmlns="http://www.w3.org/2000/svg" width="150" height="202" viewBox="0 0 150 202">
    <g fill="none" fill-rule="evenodd">
        <path fill="#FF4A5B" d="M4.816 167.547h18.729V155.5H4.816v12.047zM.267 178.209v-.924h13.398v-8.849H3.928v-13.86h20.505v13.86h-9.808v8.849h13.432v.924H.267zM33.034 164.633v-11.017h19.794v.89H33.922v9.203h18.977v.924H33.034zm9.239 17.733v-11.549H28.876v-.925h27.79v.925H43.233v11.55h-.96zM80.939 182.544h.959v-30.811h-.959v30.811zm-20.683-21.429c0 3.625 3.199 5.935 6.966 5.935 3.766 0 6.858-2.31 6.858-5.971 0-3.624-3.092-5.934-6.858-5.934-3.767 0-6.966 2.31-6.966 5.97zm14.819-.071c0 4.158-3.447 6.93-7.853 6.93-4.336 0-7.89-2.772-7.925-6.895-.035-4.086 3.589-6.858 7.925-6.858 4.406 0 7.853 2.736 7.853 6.823zm-7.32 14.002c-3.909.213-6.752.213-9.774.284l-.248-1.066c1.777 0 5.864-.071 9.879-.249 4.087-.178 8.494-.462 10.91-.817l.036.995c-2.523.32-6.645.64-10.803.853zM118.148 182.544h.96v-30.811h-.96v30.811zm-22.531-9.773h9.312v-16.383h-9.312v16.383zm-.959.924v-18.231h11.159v8.21h6.397V152.55h.924v28.217h-.924v-16.169h-6.397v9.097H94.658zM125.683 163.816V153.51h.924v9.347h19.617v.959h-20.541zm4.335 18.728v-12.118h-8.102v-.96h27.79v.96h-8.137v12.118h-.96v-12.118h-9.63v12.118h-.96zM74.26 128.793a10.299 10.299 0 0 1-7.284-3.017L13.273 72.075a10.302 10.302 0 0 1 0-14.57L66.976 3.803a10.299 10.299 0 0 1 14.568 0l53.703 53.703a10.302 10.302 0 0 1 0 14.569l-53.703 53.703a10.299 10.299 0 0 1-7.284 3.016"/>
        <path fill="#FFF" d="M25.19 22.12v21.334c0 3.534-2.868 6.4-6.4 6.4h-4.268a6.402 6.402 0 0 1-6.4-6.4V22.12M20.923 49.855v51.204a4.268 4.268 0 0 1-8.534 0V49.855"/>
        <path stroke="#3F3F3F" stroke-linejoin="round" stroke-width="4.267" d="M16.655 22.12v21.334M25.19 22.12v21.334c0 3.534-2.868 6.4-6.4 6.4h-4.268a6.402 6.402 0 0 1-6.4-6.4V22.12M20.923 49.855v51.204a4.268 4.268 0 0 1-8.534 0V49.855"/>
        <path fill="#FFF" d="M114.796 64.79c0 22.386-18.15 40.535-40.536 40.535-22.388 0-40.536-18.149-40.536-40.536S51.872 24.252 74.26 24.252c22.387 0 40.536 18.15 40.536 40.537M125.463 39.187v23.468l6.4 6.401v32.002a4.267 4.267 0 0 0 8.535 0V24.252c-8.248 0-14.935 6.686-14.935 14.935"/>
        <path stroke="#3F3F3F" stroke-linejoin="round" stroke-width="4.267" d="M125.463 39.187c0-8.249 6.687-14.935 14.935-14.935v76.806a4.267 4.267 0 0 1-8.534 0V69.056l-6.401-6.401V39.187M131.864 56.255h-6.4M131.864 47.721h-6.4M131.864 39.187h-6.4M114.796 64.79c0 22.386-18.15 40.535-40.536 40.535-22.388 0-40.536-18.149-40.536-40.536S51.872 24.252 74.26 24.252c22.387 0 40.536 18.15 40.536 40.537z"/>
        <path stroke="#3F3F3F" stroke-linejoin="round" stroke-width="4.267" d="M99.861 64.79c0 14.138-11.463 25.601-25.602 25.601-14.138 0-25.6-11.463-25.6-25.602 0-14.139 11.462-25.602 25.6-25.602 14.14 0 25.602 11.463 25.602 25.602zM61.459 64.79c0-7.07 5.73-12.802 12.8-12.802"/>
        <path fill="#FF4A5B" d="M37.652 196.853v-.351c0-2.262-.884-3.679-2.899-3.692-1.846 0-2.847 1.404-2.847 3.523v.351c0 2.262.884 3.705 2.873 3.705 1.898 0 2.873-1.417 2.873-3.536m-6.656-.156v-.208c0-2.769 1.443-4.394 3.796-4.394 2.327 0 3.77 1.56 3.77 4.407v.208c0 2.743-1.443 4.394-3.796 4.394-2.327 0-3.77-1.56-3.77-4.407M44.035 196.463c1.456 0 1.964-.676 1.964-1.807 0-1.092-.547-1.703-1.977-1.703h-1.586v3.51h1.599zm-2.431-4.226h2.457c1.938 0 2.847.911 2.847 2.42 0 1.234-.61 1.962-1.807 2.287v.052l2.406 3.965h-.976l-2.274-3.822h-1.821v3.822h-.832v-8.724zM52.81 200.233c2.196 0 3.197-1.066 3.197-3.497v-.325c0-2.522-1.143-3.446-3.302-3.446h-1.573v7.268h1.677zm-2.51-7.996h2.47c2.704 0 4.147 1.34 4.147 4.174v.208c0 2.795-1.299 4.342-4.12 4.342H50.3v-8.724zM59.96 192.238h5.122v.715h-4.29v3.16h3.302v.728h-3.302v3.405h4.329v.716H59.96zM70.71 196.463c1.456 0 1.963-.676 1.963-1.807 0-1.092-.546-1.703-1.976-1.703H69.11v3.51h1.599zm-2.431-4.226h2.457c1.937 0 2.847.911 2.847 2.42 0 1.234-.61 1.962-1.807 2.287v.052l2.406 3.965h-.976l-2.274-3.822H69.11v3.822h-.832v-8.724zM84.542 200.26c1.326 0 2.04-.586 2.04-1.795s-.817-1.69-2.195-1.69h-1.86v3.484h2.015zm-.351-4.16c1.144 0 1.99-.417 1.99-1.6 0-1.144-.624-1.547-1.951-1.547h-1.703v3.146h1.664zm-2.496-3.862h2.6c1.964 0 2.757.767 2.757 2.171 0 .988-.494 1.677-1.51 1.937v.052c1.055.143 1.912.728 1.912 2.132 0 1.456-.962 2.431-2.873 2.431h-2.886v-8.723zM96.67 196.853v-.351c0-2.262-.883-3.679-2.898-3.692-1.846 0-2.847 1.404-2.847 3.523v.351c0 2.262.884 3.705 2.873 3.705 1.898 0 2.873-1.417 2.873-3.536m-6.656-.156v-.208c0-2.769 1.443-4.394 3.796-4.394 2.327 0 3.77 1.56 3.77 4.407v.208c0 2.743-1.443 4.394-3.796 4.394-2.327 0-3.77-1.56-3.77-4.407M106.785 196.853v-.351c0-2.262-.884-3.679-2.899-3.692-1.846 0-2.847 1.404-2.847 3.523v.351c0 2.262.884 3.705 2.873 3.705 1.898 0 2.873-1.417 2.873-3.536m-6.656-.156v-.208c0-2.769 1.443-4.394 3.796-4.394 2.327 0 3.77 1.56 3.77 4.407v.208c0 2.743-1.443 4.394-3.796 4.394-2.327 0-3.77-1.56-3.77-4.407M111.816 196.515l3.718-4.277h.962l-3.679 4.238 3.835 4.485H115.6l-3.783-4.446zm-1.079 4.447h.832v-8.724h-.832v8.724z"/>
    </g>
</svg>
