<?xml version="1.0" encoding="UTF-8"?>
<svg width="200px" height="200px" viewBox="0 0 200 200" version="1.1" xmlns="http://www.w3.org/2000/svg" xmlns:xlink="http://www.w3.org/1999/xlink">
    <!-- Generator: Sketch 52.5 (67469) - http://www.bohemiancoding.com/sketch -->
    <title>000</title>
    <desc>Created with Sketch.</desc>
    <g id="09.Error" stroke="none" stroke-width="1" fill="none" fill-rule="evenodd">
        <g id="error-page" transform="translate(-80.000000, -124.000000)">
            <g id="000" transform="translate(80.000000, 124.000000)">
                <polygon id="Components/color/grey-darken-2" fill="#FFFFFF" points="0 0 200 0 200 200 0 200"></polygon>
                <path d="M100.2,119 C109.933382,119 118.633295,121.633307 126.3,126.9 C133.966705,132.166693 139.46665,139.13329 142.8,147.8 L57.6,147.8 C60.93335,139.13329 66.433295,132.166693 74.1,126.9 C81.766705,121.633307 90.466618,119 100.2,119 Z M71,94 C67.399982,94 64.400012,92.800012 62,90.4 C59.599988,87.999988 58.4,85.000018 58.4,81.4 C58.4,77.799982 59.599988,74.833345 62,72.5 C64.400012,70.166655 67.399982,69 71,69 C74.600018,69 77.566655,70.199988 79.9,72.6 C82.233345,75.000012 83.4,77.933316 83.4,81.4 C83.4,84.866684 82.200012,87.833321 79.8,90.3 C77.399988,92.766679 74.466684,94 71,94 Z M129.6,94 C125.999982,94 123.000012,92.800012 120.6,90.4 C118.199988,87.999988 117,85.000018 117,81.4 C117,77.799982 118.199988,74.833345 120.6,72.5 C123.000012,70.166655 125.999982,69 129.6,69 C133.200018,69 136.166655,70.199988 138.5,72.6 C140.833345,75.000012 142,77.933316 142,81.4 C142,84.866684 140.800012,87.833321 138.4,90.3 C135.999988,92.766679 133.066684,94 129.6,94 Z M100.2,169 C112.20006,169 123.399948,165.933364 133.8,159.8 C143.933384,153.933304 151.933304,145.933384 157.8,135.8 C163.933364,125.399948 167,114.20006 167,102.2 C167,90.19994 163.933364,79.000052 157.8,68.6 C151.933304,58.466616 143.933384,50.466696 133.8,44.6 C123.399948,38.466636 112.20006,35.4 100.2,35.4 C88.19994,35.4 77.000052,38.466636 66.6,44.6 C56.466616,50.466696 48.466696,58.466616 42.6,68.6 C36.466636,79.000052 33.4,90.19994 33.4,102.2 C33.4,114.20006 36.466636,125.399948 42.6,135.8 C48.466696,145.933384 56.466616,153.933304 66.6,159.8 C77.000052,165.933364 88.19994,169 100.2,169 Z M100.2,19 C115.400076,19 129.466602,22.799962 142.4,30.4 C154.933396,37.600036 164.799964,47.466604 172,60 C179.600038,72.933398 183.4,86.999924 183.4,102.2 C183.4,117.400076 179.600038,131.466602 172,144.4 C164.799964,156.933396 154.933396,166.799964 142.4,174 C129.466602,181.600038 115.400076,185.4 100.2,185.4 C84.999924,185.4 70.933398,181.600038 58,174 C45.466604,166.66663 35.600036,156.733396 28.4,144.2 C20.799962,131.266602 17,117.266742 17,102.2 C17,87.133258 20.799962,73.133398 28.4,60.2 C35.73337,47.666604 45.666604,37.73337 58.2,30.4 C71.133398,22.799962 85.133258,19 100.2,19 Z" id="Components/icon/mood_bad" fill="#616161"></path>
            </g>
        </g>
    </g>
</svg>