<?xml version="1.0" encoding="UTF-8"?>
<svg width="328px" height="200px" viewBox="0 0 328 200" version="1.1" xmlns="http://www.w3.org/2000/svg" xmlns:xlink="http://www.w3.org/1999/xlink">
    <!-- Generator: Sketch 52.5 (67469) - http://www.bohemiancoding.com/sketch -->
    <title>301</title>
    <desc>Created with Sketch.</desc>
    <g id="09.Error" stroke="none" stroke-width="1" fill="none" fill-rule="evenodd">
        <g id="301-page" transform="translate(-16.000000, -124.000000)">
            <g id="301" transform="translate(16.000000, 124.000000)">
                <polygon id="Components/color/grey-darken-2" fill="#FFFFFF" points="0 0 328 0 328 200 0 200"></polygon>
                <path d="M43.2036336,86.1218774 L46.4314913,86.1218774 C50.7353231,86.1218774 54.2942075,84.7562589 57.1082513,82.0249811 C59.9222952,79.2937032 61.329296,75.6934364 61.329296,71.2240727 C61.329296,67.9134329 60.3361189,64.8925193 58.349735,62.1612415 C56.3633512,59.4299636 53.4665848,58.0643452 49.659349,58.0643452 C43.2036013,58.0643452 38.6515399,61.2094058 36.003028,67.4996215 L5.21423164,62.5336866 C12.4976392,42.1732517 27.726354,31.993187 50.9008327,31.993187 C62.1570081,31.993187 72.0887786,35.0141005 80.6964421,41.0560182 C89.3041056,47.0979358 93.6078728,55.8296174 93.6078728,67.2513248 C93.6078728,79.6662241 87.483281,88.770347 75.2339137,94.5639667 C82.8483853,97.0469466 88.8902123,101.392096 93.3595761,107.599546 C97.8289398,113.806995 100.063588,120.800617 100.063588,128.580621 C100.063588,139.836796 95.4701443,149.065066 86.2831188,156.265708 C77.0960934,163.466349 65.1365864,167.066616 50.4042392,167.066616 C37.6582759,167.066616 26.6091813,163.880173 17.2566238,157.507192 C7.90406628,151.13421 2.15191588,142.733587 0,132.305072 L30.7887964,126.594247 C31.6164563,131.394675 33.8097223,135.367383 37.3686601,138.512491 C40.9275979,141.657598 45.2727475,143.230129 50.4042392,143.230129 C55.2046669,143.230129 59.2187575,141.740363 62.4466313,138.760787 C65.6745052,135.781211 67.2884179,131.808503 67.2884179,126.842544 C67.2884179,121.048924 65.4675933,116.45548 61.8258895,113.062074 C58.1841857,109.668668 52.7217119,107.971991 45.4383043,107.971991 L40.7206662,108.220288 L43.2036336,86.1218774 Z M263.442846,83.6389099 L263.442846,57.0711582 C282.147961,54.5881783 295.555851,46.642762 303.666919,33.2346707 L328,33.2346707 L328,164.087055 L295.22483,164.087055 L295.22483,71.4723694 C288.60355,76.6038611 278.009662,80.6593341 263.442846,83.6389099 Z M217.507949,120.552359 L200.292708,120.552359 L200.292708,93.0741862 L186.38809,93.0741862 L186.38809,120.552359 L169.33838,120.552359 L193.50593,144.719909 L217.507949,120.552359 Z M141.860207,79.1695685 L158.909917,79.1695685 L158.909917,106.647742 L172.814534,106.647742 L172.814534,79.1695685 L190.029775,79.1695685 L165.696694,54.8364875 L141.860207,79.1695685 Z M179.601312,31 C192.181743,31 203.823986,34.1450607 214.528388,40.4352763 C224.901726,46.394428 233.067848,54.5605504 239.027,64.9338885 C245.317215,75.6382905 248.462276,87.2805326 248.462276,99.8609639 C248.462276,112.441395 245.317215,124.083637 239.027,134.788039 C233.067848,145.161377 224.901726,153.3275 214.528388,159.286652 C203.823986,165.576867 192.181743,168.721928 179.601312,168.721928 C167.020881,168.721928 155.378639,165.576867 144.674237,159.286652 C134.300899,153.217145 126.134776,144.995846 120.175625,134.622508 C113.885409,123.918106 110.740348,112.331041 110.740348,99.8609639 C110.740348,87.3908873 113.885409,75.8038217 120.175625,65.0994196 C126.245131,54.7260815 134.46643,46.5047826 144.839768,40.4352763 C155.54417,34.1450607 167.131235,31 179.601312,31 Z" id="Combined-Shape" fill="#616161"></path>
            </g>
        </g>
    </g>
</svg>