<?xml version="1.0" encoding="UTF-8"?>
<svg width="200px" height="200px" viewBox="0 0 200 200" version="1.1" xmlns="http://www.w3.org/2000/svg" xmlns:xlink="http://www.w3.org/1999/xlink">
    <!-- Generator: Sketch 52.5 (67469) - http://www.bohemiancoding.com/sketch -->
    <title>400</title>
    <desc>Created with Sketch.</desc>
    <g id="09.Error" stroke="none" stroke-width="1" fill="none" fill-rule="evenodd">
        <g id="not-have-gum-permisson-page" transform="translate(-80.000000, -124.000000)">
            <g id="400" transform="translate(80.000000, 124.000000)">
                <polygon id="Components/color/grey-darken-2" fill="#FFFFFF" points="0 0 200 0 200 200 0 200"></polygon>
                <path d="M125.6,68.6 L125.6,51.8 C125.6,47.266644 124.433345,43.00002 122.1,39 C119.766655,34.99998 116.60002,31.833345 112.6,29.5 C108.59998,27.166655 104.333356,26 99.8,26 C95.266644,26 91.00002,27.166655 87,29.5 C82.99998,31.833345 79.833345,34.99998 77.5,39 C75.166655,43.00002 74,47.266644 74,51.8 L74,68.6 L125.6,68.6 Z M99.8,143.6 C104.333356,143.6 108.26665,141.93335 111.6,138.6 C114.93335,135.26665 116.6,131.333356 116.6,126.8 C116.6,122.266644 114.93335,118.33335 111.6,115 C108.26665,111.66665 104.333356,110 99.8,110 C95.266644,110 91.33335,111.66665 88,115 C84.66665,118.33335 83,122.266644 83,126.8 C83,131.333356 84.66665,135.26665 88,138.6 C91.33335,141.93335 95.266644,143.6 99.8,143.6 Z M149.8,68.6 C154.333356,68.6 158.26665,70.199984 161.6,73.4 C164.93335,76.600016 166.6,80.466644 166.6,85 L166.6,168.6 C166.6,173.133356 164.93335,176.999984 161.6,180.2 C158.26665,183.400016 154.333356,185 149.8,185 L49.8,185 C45.266644,185 41.33335,183.400016 38,180.2 C34.66665,176.999984 33,173.133356 33,168.6 L33,85 C33,80.466644 34.66665,76.600016 38,73.4 C41.33335,70.199984 45.266644,68.6 49.8,68.6 L58,68.6 L58,51.8 C58,44.199962 59.866648,37.200032 63.6,30.8 C67.333352,24.399968 72.399968,19.333352 78.8,15.6 C85.200032,11.866648 92.199962,10 99.8,10 C107.400038,10 114.399968,11.866648 120.8,15.6 C127.200032,19.333352 132.266648,24.399968 136,30.8 C139.733352,37.200032 141.6,44.199962 141.6,51.8 L141.6,68.6 L149.8,68.6 Z" id="Components/icon/lock" fill="#616161"></path>
            </g>
        </g>
    </g>
</svg>