<?xml version="1.0" encoding="UTF-8"?>
<svg width="200px" height="200px" viewBox="0 0 200 200" version="1.1" xmlns="http://www.w3.org/2000/svg" xmlns:xlink="http://www.w3.org/1999/xlink">
    <!-- Generator: Sketch 52.5 (67469) - http://www.bohemiancoding.com/sketch -->
    <title>401</title>
    <desc>Created with Sketch.</desc>
    <g id="09.Error" stroke="none" stroke-width="1" fill="none" fill-rule="evenodd">
        <g id="not-access-app-page" transform="translate(-80.000000, -124.000000)">
            <g id="Group" transform="translate(16.000000, 124.000000)">
                <g id="401" transform="translate(64.000000, 0.000000)">
                    <polygon id="Components/color/grey-darken-2" fill="#FFFFFF" points="0 0 200 0 200 200 0 200"></polygon>
                    <path d="M58.2,118.8 C62.733356,118.8 66.66665,117.13335 70,113.8 C73.33335,110.46665 75,106.533356 75,102 C75,97.466644 73.33335,93.53335 70,90.2 C66.66665,86.86665 62.733356,85.2 58.2,85.2 C53.666644,85.2 49.800016,86.86665 46.6,90.2 C43.399984,93.53335 41.8,97.466644 41.8,102 C41.8,106.533356 43.399984,110.46665 46.6,113.8 C49.800016,117.13335 53.666644,118.8 58.2,118.8 Z M105.4,85.2 L191.8,85.2 L191.8,118.8 L175,118.8 L175,152 L141.8,152 L141.8,118.8 L105.4,118.8 C102.06665,128.666716 96.06671,136.666636 87.4,142.8 C78.73329,148.933364 69.000054,152 58.2,152 C49.133288,152 40.766705,149.766689 33.1,145.3 C25.433295,140.833311 19.366689,134.766705 14.9,127.1 C10.433311,119.433295 8.2,111.066712 8.2,102 C8.2,92.933288 10.433311,84.566705 14.9,76.9 C19.366689,69.233295 25.433295,63.166689 33.1,58.7 C40.766705,54.233311 49.133288,52 58.2,52 C69.000054,52 78.73329,55.066636 87.4,61.2 C96.06671,67.333364 102.06665,75.333284 105.4,85.2 Z" id="Components/icon/vpn_key" fill="#616161"></path>
                </g>
            </g>
        </g>
    </g>
</svg>