<?xml version="1.0" encoding="UTF-8"?>
<svg width="328px" height="200px" viewBox="0 0 328 200" version="1.1" xmlns="http://www.w3.org/2000/svg" xmlns:xlink="http://www.w3.org/1999/xlink">
    <!-- Generator: Sketch 52.5 (67469) - http://www.bohemiancoding.com/sketch -->
    <title>404</title>
    <desc>Created with Sketch.</desc>
    <g id="09.Error" stroke="none" stroke-width="1" fill="none" fill-rule="evenodd">
        <g id="404-page" transform="translate(-16.000000, -124.000000)">
            <g id="404" transform="translate(16.000000, 124.000000)">
                <polygon id="Components/color/grey-darken-2" fill="#FFFFFF" points="0 0 328 0 328 200 0 200"></polygon>
                <path d="M58.0926431,160.018182 L58.0926431,138.115681 L0,138.115681 L0,119.565603 L60.1035422,42.2363636 L87.3623978,42.2363636 L87.3623978,116.660169 L104.566757,116.660169 L104.566757,138.115681 L87.3623978,138.115681 L87.3623978,160.018182 L58.0926431,160.018182 Z M29.0463215,116.660169 L58.0926431,116.660169 L58.0926431,78.8895291 L29.0463215,116.660169 Z M281.525886,160.018182 L281.525886,138.115681 L223.433243,138.115681 L223.433243,119.565603 L283.536785,42.2363636 L310.79564,42.2363636 L310.79564,116.660169 L328,116.660169 L328,138.115681 L310.79564,138.115681 L310.79564,160.018182 L281.525886,160.018182 Z M252.479564,116.660169 L281.525886,116.660169 L281.525886,78.8895291 L252.479564,116.660169 Z M188.212511,95.5151344 C193.852566,95.5151344 198.42812,90.9324413 198.42812,85.2690659 C198.42812,79.6123747 193.852566,75.0228167 188.212511,75.0228167 C182.572816,75.0228167 177.996902,79.6123747 177.996902,85.2690659 C177.996902,90.9324413 182.572816,95.5151344 188.212511,95.5151344 Z M130.323819,85.2690659 C130.323819,90.9324413 134.899733,95.5151344 140.539428,95.5151344 C146.179483,95.5151344 150.755037,90.9324413 150.755037,85.2690659 C150.755037,79.6123747 146.179483,75.0228167 140.539428,75.0228167 C134.899733,75.0228167 130.323819,79.6123747 130.323819,85.2690659 Z M164.372727,40 C215.450953,40 215.436364,87.8152272 215.436364,87.8152272 L215.436364,160.763636 L202.624344,143.704861 L189.858615,160.763636 L177.102793,143.704861 L164.347331,160.763636 L151.592048,143.704861 L138.837487,160.763636 L126.084366,143.704861 L113.309091,160.763636 L113.309091,87.8152272 C113.309091,87.8152272 113.294321,40 164.372727,40 Z" fill="#616161"></path>
            </g>
        </g>
    </g>
</svg>