<?xml version="1.0" encoding="UTF-8"?>
<svg width="197px" height="200px" viewBox="0 0 197 200" version="1.1" xmlns="http://www.w3.org/2000/svg" xmlns:xlink="http://www.w3.org/1999/xlink">
    <!-- Generator: Sketch 52.5 (67469) - http://www.bohemiancoding.com/sketch -->
    <title>405</title>
    <desc>Created with Sketch.</desc>
    <g id="09.Error" stroke="none" stroke-width="1" fill="none" fill-rule="evenodd">
        <g id="No-permission-page" transform="translate(-81.000000, -124.000000)">
            <g id="405" transform="translate(81.000000, 124.000000)">
                <polygon id="Components/color/grey-darken-2" fill="#FFFFFF" points="0.921568627 0 197 0 197 200 0.921568627 200"></polygon>
                <path d="M98.9607843,164.230769 C110.273058,164.230769 120.831022,161.282081 130.634992,155.384615 C140.187579,149.743562 147.728982,142.051331 153.259427,132.307692 C159.041256,122.307642 161.932127,111.538519 161.932127,100 C161.932127,92.6922712 160.800916,85.6731106 158.538462,78.9423077 C156.276007,72.2115048 153.008066,66.0897712 148.73454,60.5769231 L60.3107089,150.769231 C65.7154619,155.128227 71.7171616,158.461527 78.3159879,160.769231 C84.9148143,163.076935 91.7963443,164.230769 98.9607843,164.230769 Z M35.9894419,100 C35.9894419,107.307729 37.1206523,114.326889 39.3831071,121.057692 C41.6455618,127.788495 44.913503,133.910229 49.1870287,139.423077 L137.61086,49.2307692 C132.206107,44.8717731 126.204407,41.5384731 119.605581,39.2307692 C113.006754,36.9230654 106.125224,35.7692308 98.9607843,35.7692308 C87.6485106,35.7692308 77.0905468,38.7179192 67.2865762,44.6153846 C57.7339894,50.2564385 50.1925867,57.9486692 44.6621418,67.6923077 C38.880313,77.6923577 35.9894419,88.4614808 35.9894419,100 Z M98.9607843,20 C113.289664,20 126.549964,23.6538096 138.742081,30.9615385 C150.557123,37.88465 159.858186,47.3717346 166.645551,59.4230769 C173.809991,71.8590365 177.392157,85.3845423 177.392157,100 C177.392157,114.615458 173.809991,128.140963 166.645551,140.576923 C159.858186,152.628265 150.557123,162.11535 138.742081,169.038462 C126.549964,176.34619 113.289664,180 98.9607843,180 C84.6319042,180 71.3716044,176.34619 59.1794872,169.038462 C47.3644457,161.987144 38.0633824,152.435958 31.2760181,140.384615 C24.1115781,127.948656 20.5294118,114.487252 20.5294118,100 C20.5294118,85.5127481 24.1115781,72.0513442 31.2760181,59.6153846 C38.1890743,47.5640423 47.5529827,38.0128558 59.3680241,30.9615385 C71.5601414,23.6538096 84.7575962,20 98.9607843,20 Z" fill="#616161"></path>
            </g>
        </g>
    </g>
</svg>