<?xml version="1.0" encoding="UTF-8"?>
<svg width="328px" height="200px" viewBox="0 0 328 200" version="1.1" xmlns="http://www.w3.org/2000/svg" xmlns:xlink="http://www.w3.org/1999/xlink">
    <!-- Generator: Sketch 52.5 (67469) - http://www.bohemiancoding.com/sketch -->
    <title>500</title>
    <desc>Created with Sketch.</desc>
    <g id="09.Error" stroke="none" stroke-width="1" fill="none" fill-rule="evenodd">
        <g id="500-page" transform="translate(-16.000000, -124.000000)">
            <g id="500" transform="translate(16.000000, 124.000000)">
                <polygon id="Components/color/grey-darken-2" fill="#FFFFFF" points="0 0 328 0 328 200 0 200"></polygon>
                <path d="M0,131.841135 L28.8453901,127.653901 C29.7758912,131.375905 31.6368655,134.361218 34.4283688,136.609929 C37.2198721,138.85864 40.3214959,139.982979 43.7333333,139.982979 C47.7655048,139.982979 51.564994,138.470937 55.1319149,135.446809 C58.6988358,132.42268 60.4822695,127.576393 60.4822695,120.907801 C60.4822695,115.169711 58.9702279,110.400965 55.9460993,106.601418 C52.9219707,102.801872 49.0061706,100.902128 44.1985816,100.902128 C38.3054079,100.902128 33.5754315,102.995724 30.0085106,107.182979 L3.25673759,104.624113 L15.8184397,39.4893617 L87.0014184,39.4893617 L87.0014184,64.8453901 L38.848227,64.8453901 L36.0567376,82.0595745 C41.0194102,80.5087393 46.5247925,79.7333333 52.5730496,79.7333333 C63.1187289,79.7333333 72.1909786,83.5328225 79.7900709,91.1319149 C87.3891633,98.7310073 91.1886525,108.035879 91.1886525,119.046809 C91.1886525,132.073824 86.8463791,142.619345 78.1617021,150.683688 C69.4770251,158.748031 58.1560982,162.780142 44.1985816,162.780142 C20.7809704,162.780142 6.04825719,152.467243 0,131.841135 Z M278.683688,163.478014 C263.79567,163.478014 251.970729,157.70124 243.208511,146.147518 C234.446292,134.593796 230.065248,119.046906 230.065248,99.506383 C230.065248,80.1209433 234.407522,64.6903647 243.092199,53.2141844 C251.776876,41.7380041 263.640587,36 278.683688,36 C293.726789,36 305.5905,41.7380041 314.275177,53.2141844 C322.959854,64.6903647 327.302128,80.1209433 327.302128,99.506383 C327.302128,119.046906 322.921084,134.593796 314.158865,146.147518 C305.396646,157.70124 293.571706,163.478014 278.683688,163.478014 Z M295.665248,99.7390071 C295.665248,84.6959059 294.347058,74.1891551 291.710638,68.2184397 C289.074218,62.2477243 284.731945,59.2624113 278.683688,59.2624113 C273.721015,59.2624113 269.650134,61.6661698 266.470922,66.4737589 C263.29171,71.2813479 261.702128,82.3696531 261.702128,99.7390071 C261.702128,117.263445 263.36925,128.39052 266.703546,133.120567 C270.037842,137.850615 274.031182,140.215603 278.683688,140.215603 C284.421778,140.215603 288.686511,137.346601 291.478014,131.608511 C294.269518,125.87042 295.665248,115.247359 295.665248,99.7390071 Z M103.440189,153.194724 L103.440189,46.0028369 L221.055544,46.0028369 L221.055544,153.194724 L103.440189,153.194724 Z M114.294499,142.427323 L210.03923,142.427323 L210.03923,72.8409855 L114.294499,72.8409855 L114.294499,142.427323 Z M177.452682,128.84106 C178.206652,127.94817 178.583637,126.69658 178.583637,125.087737 L178.583637,118.732881 L168.566891,118.732881 L168.566891,125.087737 C168.566891,126.69658 168.974657,127.94817 169.790188,128.84106 C170.605719,129.733951 171.898192,130.180396 173.667606,130.180396 C175.437021,130.180396 176.698713,129.733951 177.452682,128.84106 Z M165.197357,134.222832 C163.535513,132.247095 162.704754,129.426357 162.704754,125.759334 L162.704754,118.732881 L140.157599,118.732881 L140.157599,111.727 L184.492107,111.727 L184.492107,126.21735 C184.492107,129.557655 183.615014,132.221221 181.86099,134.206922 C180.106804,136.193427 177.391121,137.186278 173.713778,137.186278 C169.697845,137.186278 166.859038,136.197927 165.197357,134.222832 Z M136.165123,62.0735846 L210.03923,62.0735846 L210.03923,56.7702378 L136.165123,56.7702378 L136.165123,62.0735846 Z M116.961905,56.6440825 C115.479887,56.6440825 114.27846,57.8358891 114.27846,59.3060411 C114.27846,60.7761931 115.479887,61.9679998 116.961905,61.9679998 C118.443923,61.9679998 119.645349,60.7761931 119.645349,59.3060411 C119.645349,57.8358891 118.443923,56.6440825 116.961905,56.6440825 Z M130.661664,59.3060411 C130.661664,57.8358891 129.460237,56.6440825 127.978219,56.6440825 C126.496201,56.6440825 125.294775,57.8358891 125.294775,59.3060411 C125.294775,60.7761931 126.496201,61.9679998 127.978219,61.9679998 C129.460237,61.9679998 130.661664,60.7761931 130.661664,59.3060411 Z M149.41893,97.2530844 L144.922654,101.712395 L138.177106,95.0234289 L131.434959,101.712395 L126.939331,97.2530844 L133.682936,90.5637964 L126.939331,83.8712942 L131.434959,79.4156794 L138.177106,86.1043246 L144.920224,79.4156794 L149.417634,83.8712942 L142.675002,90.5607429 L149.41893,97.2530844 Z M197.885911,97.2530844 L193.389635,101.712395 L186.644086,95.0234289 L179.90194,101.712395 L175.406312,97.2530844 L182.149916,90.5637964 L175.406312,83.8712942 L179.90194,79.4156794 L186.644086,86.1043246 L193.387204,79.4156794 L197.884615,83.8712942 L191.141982,90.5607429 L197.885911,97.2530844 Z" id="Clip-7" fill="#616161"></path>
            </g>
        </g>
    </g>
</svg>