<svg xmlns="http://www.w3.org/2000/svg" xmlns:xlink="http://www.w3.org/1999/xlink" width="100" height="100" viewBox="0 0 100 100">
    <defs>
        <path id="a" d="M.01.03H86v81.96H.01z"/>
    </defs>
    <g fill="none" fill-rule="evenodd" transform="translate(7 9)">
        <mask id="b" fill="#fff">
            <use xlink:href="#a"/>
        </mask>
        <path fill="#FF4A5B" d="M62.58 27.641a1.536 1.536 0 0 0 2.184 0l16.012-16.117a1.561 1.561 0 0 0 0-2.198 1.537 1.537 0 0 0-2.184 0L62.58 25.443a1.562 1.562 0 0 0 0 2.198" mask="url(#b)"/>
        <path fill="#FF4A5B" d="M72.48 70.098l.026.022a5.004 5.004 0 0 1 .305 7.317 4.926 4.926 0 0 1-7.27-.306l-.022-.026-22.5-25.517 3.853-4.37 25.609 22.88zm-6.81-33.556l19.878-20.007a1.562 1.562 0 0 0 0-2.199 1.538 1.538 0 0 0-2.184 0L63.487 34.344a8.161 8.161 0 0 1-9.317 1.61 1.537 1.537 0 0 0-1.821.37l-6.754 7.66-.008.008-.008.01-29.19 33.103a4.925 4.925 0 0 1-7.291.332 4.959 4.959 0 0 1-1.449-3.517 4.96 4.96 0 0 1 1.753-3.8l.025-.022 18.25-16.304c.637-.57.695-1.553.13-2.195a1.537 1.537 0 0 0-2.18-.13L7.388 67.761A8.058 8.058 0 0 0 4.56 73.92c0 2.16.835 4.19 2.352 5.717A7.979 7.979 0 0 0 12.593 82a7.979 7.979 0 0 0 6.117-2.843L40.954 53.93l22.245 25.227A7.98 7.98 0 0 0 69.316 82a7.98 7.98 0 0 0 5.679-2.364c3.131-3.152 3.131-8.28 0-11.432a8.093 8.093 0 0 0-.476-.442L48.922 44.894l5.008-5.68a11.246 11.246 0 0 0 11.74-2.672z" mask="url(#b)"/>
        <path fill="#FF4A5B" d="M5.424 9.609c2.274-2.29 5.96-2.932 10.381-1.812 4.751 1.204 9.792 4.307 14.193 8.737a12.603 12.603 0 0 1 1.808 15.505 1.562 1.562 0 0 0 .29 1.978l6.531 5.836-3.332 2.977-5.621-6.375a1.537 1.537 0 0 0-1.966-.291c-4.951 3.073-11.285 2.325-15.403-1.82-4.402-4.43-7.484-9.504-8.68-14.286-1.114-4.45-.474-8.16 1.8-10.45zM28.19 39.454l5.821 6.602a1.536 1.536 0 0 0 2.18.13l13.752-12.285c.514-.46.664-1.207.368-1.832a8.293 8.293 0 0 1 1.6-9.379L71.785 2.683a1.562 1.562 0 0 0 0-2.199 1.538 1.538 0 0 0-2.184 0L49.725 20.492c-3.091 3.112-4.092 7.733-2.655 11.818l-6.116 5.465-5.879-5.253a15.711 15.711 0 0 0-2.893-18.186c-4.79-4.822-10.338-8.215-15.623-9.554C11.043 3.384 6.313 4.317 3.24 7.41c-3.072 3.093-4 7.855-2.61 13.407 1.33 5.319 4.7 10.903 9.491 15.725 4.823 4.855 12.086 5.972 18.068 2.912z" mask="url(#b)"/>
    </g>
</svg>
