<svg xmlns="http://www.w3.org/2000/svg" width="100" height="118" viewBox="0 0 100 118">
    <g fill="none" fill-rule="evenodd">
        <path fill="#B28B67" d="M32.427 20.41c-1.491-1.768-2.5-3.935-2.332-6.363.486-6.997 10.124-5.457 11.999-1.926 1.875 3.53 1.652 12.488-.771 13.119-.966.252-3.025-.365-5.12-1.64l1.315 9.4h-7.765l2.674-12.59z"/>
        <path fill="#191847" d="M39.027 8.275c-1.061-.327-2.601-.438-3.25-.363a5.7 5.7 0 0 0 .396-2.854c-.116-.941-.531-1.742-.916-2.581-.177-.387-.378-.772-.678-1.067a2.308 2.308 0 0 0-1.097-.596 2.905 2.905 0 0 0-1.263 0c-.183.038-.348.123-.528.17-.185.049-.274-.068-.408-.185-.323-.283-.796-.422-1.204-.472a3.074 3.074 0 0 0-1.37.166c-.425.148-.834.388-1.141.739a1.936 1.936 0 0 0-.342.53c-.033.08-.039.127-.118.157-.073.027-.16.028-.235.054a2.97 2.97 0 0 0-1.701 1.558c-.2.429-.294 1.184-.268 2.03.026.846.782 3.053 1.49 3.858.63.72 1.558 1.193 2.453 1.401-.594.686-.99 1.544-1.282 2.416a11.934 11.934 0 0 0-.587 2.936c-.07.953-.076 1.96.146 2.893.206.873.649 1.588 1.387 2.042.339.208.703.364 1.069.507.36.141.722.278 1.1.357.715.15 1.54.123 2.09-.452a3.96 3.96 0 0 0 .562-.721c.052-.091.084-.15.02-.24-.075-.106-.198-.188-.295-.272a2.826 2.826 0 0 1-.986-1.865c-.088-.766.115-1.754.852-2.089.91-.412 1.911.061 2.72.503.343-1.225 1.049-2.329 2.154-2.89 1.224-.622 2.628-.695 3.885-1.229.328-.139.662-.296.903-.58.1-.118.219-.272.26-.428.052-.206-.08-.378-.18-.539-.538-.85-2.577-2.567-3.638-2.894z"/>
        <ellipse cx="38.5" cy="18.871" fill="#C5CFD6" rx="25.556" ry="23.71" transform="translate(-12.667 74.707)"/>
        <path fill="#B28B67" d="M83.72 113.544C77.148 105.687 72.7 99.86 70.38 96.069c-3.976-6.495-7.229-12.273-8.256-14.48-2.448-5.265 5.637-7.73 7.466-5.274 2.77 3.716 8.684 15.41 17.743 35.08l-3.613 2.149z"/>
        <path fill="#2F3676" d="M70.253 111.26L58.022 81.115c-2.616-5.495 10.017-9.107 11.94-6.55C74.325 80.372 84.7 103.275 86 105.004l-15.747 6.255z"/>
        <path fill="#B28B67" d="M37.967 105.115c2.327-3.407 10.802-14.863 15.433-19.592 1.331-1.358 2.63-2.662 3.859-3.877 3.652-3.611 11.063 2.598 7.415 5.884-9.087 8.183-22.354 19.22-23.462 20.204-1.552 1.38-4.707-.478-3.245-2.62z"/>
        <path fill="#E4E4E4" d="M37.018 104.707a3.048 3.048 0 0 0-.326.448c-.293.507-.635 1.297-1.026 2.37l16.014 9.246c1.204-1.124 1.389-1.999.555-2.625a103.272 103.272 0 0 1-2.065-1.585l-5.14-7.034a1 1 0 0 0-1.415-.204l-.596.457c-1.052-.096-1.837-.293-2.356-.593a3.203 3.203 0 0 1-.682-.563 2 2 0 0 0-2.963.083zM80.387 113.964c-.04.209-.06.392-.06.55 0 .586.1 1.441.296 2.565h18.493c.48-1.574.203-2.424-.832-2.55a103.272 103.272 0 0 1-2.58-.34l-7.969-3.521a1 1 0 0 0-1.327.53l-.289.694c-.958.443-1.737.665-2.336.665-.245 0-.535-.049-.873-.147a2 2 0 0 0-2.523 1.554z"/>
        <path fill="#5C63AB" d="M53.62 82.621C43.456 81 36.647 79.891 33.195 79.295c-9.842-1.699-12.711-6.884-11.015-18.196h18.132c2.4.678 12.426 4.874 30.078 12.587 3.176 1.544 2.585 6.095 2.004 7.595-.023.06-5.378 9.043-16.062 26.947l-14.833-9.251 12.15-15.265c.321-.633.312-.997-.027-1.09z"/>
        <g>
            <path fill="#B28B67" d="M57.268 54.549l9.516 9.162c2.769 1.166 5.038 2.453 6.806 3.861.398.474.83 1.381-1.04.975-1.872-.406-3.858-.75-4.21-.15-.352.601.685 1.522.035 2.308-.434.524-1.891-1.143-4.372-5l-9.896-5.759 3.16-5.397zm-42.24 1.292l7.02.027c-4.334 13.81-6.675 21.138-7.02 21.983-.777 1.901.868 4.797 1.571 6.353-2.291 1.012-2.047-2.735-4.937-1.408-2.638 1.211-4.645 3.406-7.693 1.55-.374-.228-.785-1.088.207-1.76 2.472-1.672 6.034-4.6 6.515-5.563.656-1.314 2.102-8.375 4.337-21.182z"/>
            <path fill="#191847" d="M34.978 26.768l2.905-.492c5.002 12.33 13.733 23.534 26.195 33.611L54.661 71.18C42.201 56.83 34.52 42.027 34.978 26.768z"/>
            <path fill="#DDE3E9" d="M22.315 62.797h25.867c-5.992-14.381-8.989-26.598-8.989-36.65L31.39 25c-6.132 9.734-7.864 21.718-9.075 37.797z"/>
            <path fill="#2F3676" d="M31.225 25.005l.003-.005h.51c.609.02 1.537.058 2.784.112l1.886 5.318c.2 6.483 1.364 19.55 3.494 39.199H22.945c.045 1.357.118 2.727.22 4.109H10.557c1.886-21 8.773-37.245 20.662-48.738l.006.005z"/>
            <path fill="#000" fill-opacity=".1" d="M24.065 52.264c.483 8.46 1.691 14.292 3.625 17.495h-4.74c-.208-6.086.164-11.918 1.115-17.495z"/>
            <path fill="#FFF" fill-opacity=".2" d="M26.72 59.481l8.36-3.836v3.836z"/>
        </g>
    </g>
</svg>
